<?xml version="1.0" encoding="UTF-8"?>
<svg width="34px" height="36px" viewBox="0 0 34 36" version="1.1" xmlns="http://www.w3.org/2000/svg" xmlns:xlink="http://www.w3.org/1999/xlink">
    <title>Group 9</title>
    <g id="Symbols" stroke="none" stroke-width="1" fill="none" fill-rule="evenodd">
        <g id="footer" transform="translate(-533.000000, -667.000000)">
            <g id="Group-14" transform="translate(533.000000, 626.000000)">
                <g id="Group-3" transform="translate(0.000000, 40.000000)">
                    <g id="Group-9" transform="translate(0.000000, 1.083487)">
                        <rect id="Rectangle" fill="#FFFFFF" x="0" y="0" width="33.5619298" height="34.0628541" rx="9"></rect>
                        <path d="M11.8579022,17.7118492 L14.1457932,17.7118492 L14.1457932,27.1307078 C14.1457932,27.3166692 14.2964745,27.4673505 14.4824359,27.4673505 L18.361637,27.4673505 C18.5475984,27.4673505 18.6982797,27.3166692 18.6982797,27.1307078 L18.6982797,17.7562188 L21.3284017,17.7562188 C21.4994162,17.7562188 21.6432973,17.6278906 21.6628225,17.4580207 L22.0622827,13.9904663 C22.0732573,13.8950617 22.0430268,13.7995225 21.9791993,13.7279523 C21.9153045,13.6563147 21.8238724,13.6153117 21.7279292,13.6153117 L18.6984143,13.6153117 L18.6984143,11.4416771 C18.6984143,10.7864358 19.0512159,10.4541695 19.7471236,10.4541695 C19.8462986,10.4541695 21.7279292,10.4541695 21.7279292,10.4541695 C21.9138906,10.4541695 22.0645719,10.3034209 22.0645719,10.1175268 L22.0645719,6.93463746 C22.0645719,6.74867603 21.9138906,6.59799476 21.7279292,6.59799476 L18.9980936,6.59799476 C18.9788377,6.59705216 18.9360841,6.59550361 18.8730645,6.59550361 C18.3994083,6.59550361 16.7530235,6.68848432 15.4525055,7.88491244 C14.0115401,9.21074602 14.2118425,10.7982183 14.2597131,11.0734574 L14.2597131,13.6152443 L11.8579022,13.6152443 C11.6719407,13.6152443 11.5212595,13.7659256 11.5212595,13.951887 L11.5212595,17.3751392 C11.5212595,17.5611006 11.6719407,17.7118492 11.8579022,17.7118492 Z" id="XMLID_835_" fill="#0F69AD" fill-rule="nonzero"></path>
                    </g>
                </g>
            </g>
        </g>
    </g>
</svg>