<?xml version="1.0" encoding="UTF-8"?>
<svg width="34px" height="36px" viewBox="0 0 34 36" version="1.1" xmlns="http://www.w3.org/2000/svg" xmlns:xlink="http://www.w3.org/1999/xlink">
    <title>Group 12</title>
    <g id="Symbols" stroke="none" stroke-width="1" fill="none" fill-rule="evenodd">
        <g id="footer" transform="translate(-577.000000, -667.000000)">
            <g id="Group-14" transform="translate(533.000000, 626.000000)">
                <g id="Group-3" transform="translate(0.000000, 40.000000)">
                    <g id="Group-12" transform="translate(44.000000, 1.083487)">
                        <rect id="Rectangle-Copy-3" fill="#FFFFFF" x="0" y="0" width="33.5619298" height="34.0628541" rx="9"></rect>
                        <path d="M17.027721,9.68518594 C18.2337993,9.69052678 23.5038542,9.73645795 24.9472451,10.1314661 C25.8412107,10.3722349 26.5461602,11.0770251 26.7867698,11.97115 C27.1617922,13.3408899 27.2102439,15.9564479 27.2161174,16.7645432 L27.2164122,17.0990021 C27.212776,17.6476014 27.1752012,20.5534138 26.786929,22.0286622 C26.5461602,22.9226279 25.84137,23.6275773 24.9472451,23.8681869 C24.2635336,24.0481636 22.7212357,24.1528012 21.1589745,24.213637 L20.6386318,24.2323366 C18.9958242,24.2866887 17.4345949,24.2961412 16.9412466,24.2977851 L16.6208564,24.2977714 C15.6106679,24.2942633 10.1112851,24.2565514 8.61445675,23.8511484 C7.7203318,23.6103795 7.01554162,22.9054301 6.77477281,22.0114644 C6.40044386,20.6038822 6.35214335,17.8400024 6.34591103,17.1501784 L6.34591103,16.8331773 C6.35214335,16.1464417 6.40044386,13.3935722 6.77477281,11.97115 C7.01538236,11.0771843 7.73752958,10.3550371 8.61429752,10.1144275 C9.26002499,9.94444953 10.6715904,9.84167214 12.1425198,9.77952768 L12.6629859,9.75923826 C14.3116486,9.70005717 15.9306436,9.68772778 16.5336683,9.68515915 Z M14.7005574,13.862268 L14.7005574,20.1203464 L20.1333019,16.9913072 L14.7005574,13.862268 Z" id="Combined-Shape" fill="#E02020" fill-rule="nonzero"></path>
                    </g>
                </g>
            </g>
        </g>
    </g>
</svg>