<?xml version="1.0" encoding="UTF-8"?>
<svg width="34px" height="36px" viewBox="0 0 34 36" version="1.1" xmlns="http://www.w3.org/2000/svg" xmlns:xlink="http://www.w3.org/1999/xlink">
    <title>Group 32</title>
    <g id="Symbols" stroke="none" stroke-width="1" fill="none" fill-rule="evenodd">
        <g id="footer" transform="translate(-709.000000, -666.000000)">
            <g id="Group-14" transform="translate(533.000000, 626.000000)">
                <g id="Group-3" transform="translate(0.000000, 40.000000)">
                    <g id="Group-32" transform="translate(176.000000, 0.562500)">
                        <rect id="Rectangle-Copy-2" fill="#0076B9" x="5.2846616e-14" y="-6.21724894e-15" width="33.5619298" height="34.0628541" rx="9"></rect>
                        <path d="M11.4865513,13.7590332 L11.4865513,27.2770996 L7.29953954,27.2770996 L7.29953954,13.7590332 L11.4865513,13.7590332 Z M22.1517487,13.5197754 C26.3908644,13.5197754 27.1574707,16.2111921 27.1574707,19.8400135 L27.1574707,19.8400135 L27.1574707,27.2770996 L23.0302734,27.2770996 L23.0300081,20.5292565 C23.023891,18.9910954 22.8934859,17.1046705 20.8115311,17.1046705 C18.6327429,17.1046705 18.1853027,18.8075133 18.1853027,20.5652637 L18.1853027,20.5652637 L18.1853027,27.2770996 L14.1179199,27.2770996 L14.1179199,13.7590332 L18.1853027,13.7590332 L18.1853027,15.5978604 C18.7474652,14.5384903 20.1147861,13.5197754 22.1517487,13.5197754 Z M9.45332718,7 C10.8061619,7 11.9043179,8.09862331 11.9043179,9.45215894 C11.9043179,10.8061619 10.8061619,11.9047852 9.45332718,11.9047852 C8.09535217,11.9047852 7,10.8061619 7,9.45215894 C7,8.09862331 8.09535217,7 9.45332718,7 Z" id="Combined-Shape" fill="#FFFFFF" fill-rule="nonzero"></path>
                    </g>
                </g>
            </g>
        </g>
    </g>
</svg>