<?xml version="1.0" encoding="UTF-8"?>
<svg width="35px" height="36px" viewBox="0 0 35 36" version="1.1" xmlns="http://www.w3.org/2000/svg" xmlns:xlink="http://www.w3.org/1999/xlink">
    <title>Group 11</title>
    <g id="Symbols" stroke="none" stroke-width="1" fill="none" fill-rule="evenodd">
        <g id="footer" transform="translate(-665.000000, -667.000000)">
            <g id="Group-14" transform="translate(533.000000, 626.000000)">
                <g id="Group-3" transform="translate(0.000000, 40.000000)">
                    <g id="Group-11" transform="translate(132.000000, 1.083487)">
                        <rect id="Rectangle-Copy-2" fill="#FFFFFF" x="0" y="0" width="33.5619298" height="34.0628541" rx="9"></rect>
                        <path d="M22.8762543,8.7343285 C21.4395552,7.355119 19.4513205,6.59550361 17.2778269,6.59550361 C13.9577072,6.59550361 11.9156855,7.95646996 10.7873025,9.09811453 C9.39664896,10.505059 8.59920091,12.3731986 8.59920091,14.2236335 C8.59920091,16.5469768 9.57100237,18.3302285 11.198413,18.9936465 C11.30767,19.038413 11.4176002,19.0609645 11.5253762,19.0609645 C11.8686976,19.0609645 12.1407293,18.8363246 12.2349743,18.4759718 C12.2899058,18.2692384 12.417204,17.7592379 12.4725393,17.5378292 C12.5910188,17.1005994 12.4952927,16.8902982 12.2369266,16.5858192 C11.7662397,16.0288981 11.5470525,15.3703269 11.5470525,14.5132352 C11.5470525,11.9674062 13.4427251,9.26169707 16.9561819,9.26169707 C19.7439515,9.26169707 21.475705,10.8461589 21.475705,13.3967002 C21.475705,15.0062043 21.1290177,16.4967576 20.4993259,17.5939724 C20.0617594,18.3563478 19.2923156,19.2651397 18.1110881,19.2651397 C17.6002797,19.2651397 17.1414408,19.0553098 16.8519064,18.6895042 C16.5783937,18.343692 16.4882551,17.8969703 16.5982525,17.4313996 C16.7225214,16.9053774 16.8919606,16.3566691 17.0559471,15.8262039 C17.3550406,14.8573644 17.6377758,13.9423119 17.6377758,13.2122491 C17.6377758,11.9635017 16.8700823,11.1244512 15.7276299,11.1244512 C14.275717,11.1244512 13.1382462,12.5991175 13.1382462,14.4816631 C13.1382462,15.4049283 13.38362,16.0954755 13.4946945,16.3606408 C13.3117918,17.1356047 12.224742,21.7429103 12.0185472,22.6117154 C11.8993272,23.1188886 11.1811123,27.1246413 12.3698795,27.4440648 C13.7055343,27.8029366 14.8994175,23.901594 15.0209264,23.460729 C15.1194125,23.1021937 15.4640129,21.7464782 15.6751892,20.9130823 C16.3199603,21.5341575 17.3581372,21.9540193 18.3683099,21.9540193 C20.2726665,21.9540193 21.9853016,21.0970622 23.1907636,19.5411432 C24.3598739,18.0320101 25.0037697,15.9285944 25.0037697,13.6186474 C25.0037697,11.8127769 24.2282673,10.0324872 22.8762543,8.7343285 Z" id="XMLID_799_" fill="#B71515" fill-rule="nonzero"></path>
                    </g>
                </g>
            </g>
        </g>
    </g>
</svg>