<?xml version="1.0" encoding="UTF-8"?>
<svg width="34px" height="35px" viewBox="0 0 34 35" version="1.1" xmlns="http://www.w3.org/2000/svg" xmlns:xlink="http://www.w3.org/1999/xlink">
    <title>Group 10</title>
    <g id="Symbols" stroke="none" stroke-width="1" fill="none" fill-rule="evenodd">
        <g id="footer" transform="translate(-621.000000, -667.000000)">
            <g id="Group-14" transform="translate(533.000000, 626.000000)">
                <g id="Group-3" transform="translate(0.000000, 40.000000)">
                    <g id="Group-8" transform="translate(88.000000, 1.000000)">
                        <rect id="Rectangle" fill="#FFFFFF" x="0" y="0" width="33.5619298" height="34.0628541" rx="9"></rect>
                        <path d="M6.678991,0.0544337766 C3.53352019,0.531981633 1.01620848,2.81435983 0.229005904,5.9024748 L0.0417436937,6.6372473 L0.0417436937,17.031427 L0.0417436937,27.4256068 L0.229005904,28.1603793 C0.984065836,31.1223448 3.41413322,33.431439 6.30730515,33.9359532 C7.39748345,34.1261375 26.1644463,34.1261375 27.2546246,33.9359532 C28.7764327,33.6706303 30.2630091,32.8597173 31.376063,31.6880553 C32.5210925,30.482581 33.1732125,29.1785914 33.4935536,27.454076 C33.5651858,27.0681973 33.593655,24.2312958 33.5984137,16.9896833 L33.6050092,7.05468424 L33.5826346,16.9479397 L33.5601765,26.8411951 L32.7053492,27.3915439 C31.1339495,28.4030771 29.8346353,29.0349931 28.1003518,29.6311766 C26.0008945,30.352925 24.0770946,30.6678395 21.7484644,30.671012 C19.1515892,30.674435 17.8142048,30.4368299 14.9179438,29.4570219 C12.2395015,28.5510168 12.2880076,28.5509333 10.4776671,29.4647862 C9.70649413,29.8540879 8.86510824,30.2126662 8.48699386,30.313185 C7.70421611,30.5213191 6.49590315,30.6217544 5.62821874,30.5507901 C5.10742441,30.5082116 4.96140497,30.4629614 4.78958793,30.2912279 C4.50522989,30.0068698 4.59022005,29.7155823 5.07286064,29.3206035 C6.62405629,28.0513447 7,27.6217186 7.51837319,26.5260302 C7.79246228,25.9464607 7.83921522,25.3840897 7.65019977,24.9391854 C7.58741726,24.7914127 7.26131552,24.3323991 6.92552925,23.9191365 C3.64973463,19.8873636 2.68311766,14.9100125 4.25568609,10.1711849 C5.57904467,6.18332638 8.92430079,2.5809291 13.2669807,0.467278908 C13.6987775,0.257141153 14.0712147,0.0660385235 14.0945912,0.0425785676 C14.1429304,-0.00576062973 7.00033395,0.00567714235 6.678991,0.0544337766 M0.0455639588,17.031427 C0.0455639588,22.5186356 0.0575639588,24.763361 0.0721639588,22.0197984 C0.0867639588,19.2761524 0.0867639588,14.7866182 0.0721639588,12.0430556 C0.0575639588,9.29940962 0.0455639588,11.5442185 0.0455639588,17.031427 M23.5340927,9.55513149 C23.1261733,9.78455483 23.1196613,9.86211462 23.1445405,14.2232453 L23.16775,18.2985986 L23.3648637,18.458143 C23.6714294,18.706351 24.2934939,18.6770469 24.5516369,18.4022065 L24.7540104,18.186809 L24.7540104,14.0627825 L24.7540104,9.93875604 L24.5407836,9.72561274 C24.2793011,9.46404675 23.8309738,9.38815672 23.5340927,9.55513149 M9.90719781,10.3369909 C9.64705111,10.6245214 9.57566939,10.9795933 9.72143837,11.2613632 C9.79390542,11.401622 9.92548154,11.5549884 10.0138947,11.6022422 C10.1083189,11.6528356 10.8472658,11.6882342 11.8079552,11.6882342 C12.7063629,11.6882342 13.4414694,11.7088556 13.4414694,11.7340688 C13.4414694,11.759282 12.5906494,13.007335 11.5507305,14.5074363 C9.96630688,16.7929036 9.65339615,17.2925756 9.61983422,17.590709 C9.57015922,18.031439 9.74673505,18.3319101 10.1557398,18.5028922 C10.3940128,18.6024092 10.9107162,18.6201085 12.9948119,18.6002385 L15.5425965,18.5759437 L15.7860457,18.3032739 C16.2094102,17.8292325 16.0703202,17.253253 15.4781442,17.0280875 C15.3621802,16.9840062 14.5183732,16.9479397 13.6030175,16.9479397 C12.6876618,16.9479397 11.9386964,16.9262329 11.9386964,16.8996839 C11.9386964,16.873135 12.7906017,15.6427813 13.8318564,14.165472 C15.7148309,11.4939591 15.7250999,11.4770946 15.7311945,11.0341106 C15.7366211,10.6457272 15.7074006,10.5629077 15.5031069,10.3870833 L15.2688413,10.1854613 L12.6566044,10.1854613 C10.2391437,10.1854613 10.0340986,10.1967321 9.90719781,10.3369909 M18.5296082,12.2267279 C17.2917407,12.6828195 16.594788,13.5392331 16.3588526,14.8943169 C16.1791043,15.9263045 16.5683225,17.2298766 17.2510824,17.8830819 C18.0953903,18.6906554 19.4675055,18.8499493 20.3667482,18.2448327 C20.7488699,17.9876916 20.7860218,17.9778401 20.8318564,18.1223567 C20.9157612,18.3866778 21.2866122,18.6176874 21.6270738,18.6176874 C22.0575347,18.6176874 22.3423937,18.2792295 22.4169479,17.6792892 C22.4469199,17.4377602 22.4590256,16.2378794 22.4439144,15.0127855 C22.4177828,12.9030592 22.4070964,12.7729859 22.2409565,12.5499076 C22.0956885,12.354881 21.9937504,12.3101318 21.6477786,12.2895939 C21.2618999,12.2666349 21.2106387,12.2868388 20.9757887,12.5543324 L20.7215696,12.8438667 L20.5253742,12.6307234 C20.0868984,12.1544278 19.2086111,11.9765997 18.5296082,12.2267279 M27.5808098,12.2775717 C26.5314569,12.6101855 25.8538732,13.2689009 25.5425488,14.2589779 C25.1100006,15.6347665 25.5054804,17.2854792 26.4382014,17.9968752 C26.9795337,18.4097203 27.5112648,18.5661757 28.3857117,18.5695987 C29.0818296,18.5723537 29.2412905,18.5440515 29.6895343,18.3383386 C30.6068102,17.9173117 31.203745,17.084859 31.4041147,15.9473433 C31.4790864,15.5219751 31.4696523,15.3310394 31.349514,14.834206 C31.011724,13.4382969 30.3637784,12.6859085 29.1462818,12.275735 C28.5285586,12.0676009 28.2420299,12.0679349 27.5808098,12.2775717 M18.7905898,13.91693 C18.4027909,14.1211402 18.2041744,14.4155167 18.0725982,14.9816447 C17.8691395,15.8567595 18.2856581,16.8479218 18.9323514,17.0275031 C19.3522094,17.1440515 19.4754368,17.13779 19.8706661,16.9796649 C20.11662,16.8812332 20.2704872,16.7392212 20.4358757,16.4578687 C20.8781919,15.7054804 20.6835828,14.3727712 20.0728726,13.9726161 C19.7534498,13.7633133 19.1334725,13.7363468 18.7905898,13.91693 M27.8017175,13.9216888 C27.3376111,14.1538673 27.0916572,14.6815075 27.0916572,15.4451667 C27.0916572,16.2611724 27.3584829,16.7693601 27.9009005,16.9864273 C28.6723239,17.2950802 29.3586737,16.9294055 29.5566223,16.1042996 C29.6860278,15.5649711 29.6121415,14.6837617 29.4078478,14.3296917 C29.2260123,14.0145268 28.7852824,13.7756694 28.3857117,13.7756694 C28.2249985,13.7756694 27.9621802,13.841374 27.8017175,13.9216888" id="Shape" fill="#0091FF"></path>
                    </g>
                </g>
            </g>
        </g>
    </g>
</svg>