<svg width="18" height="18" viewBox="0 0 18 18" fill="none" xmlns="http://www.w3.org/2000/svg">
<g clip-path="url(#clip0_1_194)">
<path d="M10.246 1.19209e-05C10.0518 1.19209e-05 9.89441 0.157391 9.89441 0.351574C9.89441 0.545757 10.0518 0.703136 10.246 0.703136C14.1339 0.703136 17.2968 3.86623 17.2968 7.75401C17.2968 7.9482 17.4544 8.10558 17.6484 8.10558C17.8426 8.10558 18 7.9482 18 7.75401C18 3.47855 14.5216 1.19209e-05 10.246 1.19209e-05Z" fill="#FF9E00"/>
<path d="M15.5335 8.10571C15.7277 8.10571 15.8851 7.9482 15.8851 7.75415C15.8851 4.64461 13.3554 2.11488 10.246 2.11488C10.0518 2.11488 9.89441 2.27239 9.89441 2.46644C9.89441 2.66062 10.0518 2.818 10.246 2.818C12.9677 2.818 15.182 5.03229 15.182 7.75415C15.182 7.9482 15.3394 8.10571 15.5335 8.10571Z" fill="#FF9E00"/>
<path d="M13.0667 7.75415C13.0667 7.9482 13.2241 8.10571 13.4183 8.10571C13.6125 8.10571 13.7698 7.9482 13.7698 7.75415C13.7698 5.81109 12.189 4.23029 10.246 4.23029C10.0518 4.23029 9.89441 4.38767 9.89441 4.58172C9.89441 4.7759 10.0518 4.93328 10.246 4.93328C11.8014 4.93328 13.0667 6.19863 13.0667 7.75415Z" fill="#FF9E00"/>
<path d="M9.89441 6.69672C9.89441 6.89077 10.0518 7.04814 10.246 7.04814C10.6352 7.04814 10.9518 7.36482 10.9518 7.75415C10.9518 7.9482 11.1092 8.10571 11.3034 8.10571C11.4974 8.10571 11.655 7.9482 11.655 7.75415C11.655 6.97715 11.0228 6.34516 10.246 6.34516C10.0518 6.34516 9.89441 6.50254 9.89441 6.69672Z" fill="#FF9E00"/>
<path d="M6.58945 11.4145C6.58945 11.6087 6.43207 11.7661 6.23788 11.7661C6.0437 11.7661 5.88632 11.6087 5.88632 11.4145C5.88632 11.2205 6.0437 11.063 6.23788 11.063C6.43207 11.063 6.58945 11.2205 6.58945 11.4145Z" fill="#FF9E00"/>
<path d="M9.63391 17.5732C11.2347 18.3577 13.1606 18.0313 14.4265 16.7654L15.1534 16.0385C15.5481 15.6442 15.5483 15.0055 15.1536 14.611L12.3449 11.8026C11.9509 11.4081 11.3121 11.4075 10.9177 11.8025L9.72427 12.996C9.49053 13.2297 9.12977 13.2774 8.86665 13.1094C8.43763 12.8352 8.02029 12.5328 7.6263 12.2106C7.47592 12.0877 7.25455 12.11 7.13164 12.2602C7.00873 12.4106 7.03097 12.6321 7.18121 12.7548C7.59636 13.0943 8.03595 13.4129 8.48817 13.7019C9.02719 14.0462 9.75613 13.9584 10.2214 13.4931L11.4151 12.2995C11.5344 12.18 11.7278 12.1797 11.8476 12.2996L14.6564 15.1081C14.776 15.2279 14.7763 15.4215 14.6564 15.5411L13.9294 16.2683C12.8749 17.3228 11.2731 17.5935 9.94331 16.9419C5.07184 14.553 2.42139 10.7652 1.05579 8.00821C0.40252 6.68972 0.673744 5.09395 1.73076 4.03721L2.44185 3.32626C2.56106 3.20678 2.75455 3.20637 2.8743 3.32639L5.68337 6.13532C5.80229 6.25411 5.80353 6.44774 5.68309 6.5679L4.4897 7.76143C4.02443 8.2267 3.93668 8.95564 4.28096 9.4948C4.4838 9.81216 4.70243 10.1253 4.93094 10.4253C5.04849 10.5798 5.26904 10.6096 5.42354 10.4921C5.57803 10.3745 5.60797 10.154 5.49028 9.99934C5.27358 9.71466 5.06593 9.41748 4.8734 9.11632C4.70545 8.85306 4.7531 8.49229 4.98683 8.25856L6.18008 7.06531C6.57463 6.67131 6.57504 6.03232 6.18036 5.63805L3.37157 2.8294C2.97771 2.43485 2.33872 2.4343 1.94445 2.82926L1.23363 3.54008C-0.036933 4.81023 -0.361579 6.73133 0.425728 8.32036C1.8398 11.175 4.58501 15.0974 9.63391 17.5732Z" fill="#FF9E00"/>
</g>
<defs>
<clipPath id="clip0_1_194">
<rect width="18" height="18" fill="white"/>
</clipPath>
</defs>
</svg>
