<svg width="32" height="32" viewBox="0 0 32 32" fill="none" xmlns="http://www.w3.org/2000/svg">
<path d="M30.08 16.333C30.08 15.293 29.9867 14.293 29.8133 13.333H16V19.0063H23.8933C23.5533 20.8397 22.52 22.393 20.9667 23.433V27.113H25.7067C28.48 24.5597 30.08 20.7997 30.08 16.333Z" fill="#4285F4"/>
<path d="M15.9973 30.6671C19.9573 30.6671 23.2773 29.3538 25.704 27.1138L20.964 23.4338C19.6506 24.3138 17.9706 24.8338 15.9973 24.8338C12.1773 24.8338 8.94396 22.2538 7.79062 18.7871H2.89062V22.5871C5.30396 27.3804 10.264 30.6671 15.9973 30.6671Z" fill="#34A853"/>
<path d="M7.79594 18.7864C7.50261 17.9064 7.33594 16.9664 7.33594 15.9998C7.33594 15.0331 7.50261 14.0931 7.79594 13.2131V9.41309H2.89594C1.86927 11.4569 1.33503 13.7126 1.33594 15.9998C1.33594 18.3664 1.90261 20.6064 2.89594 22.5864L7.79594 18.7864Z" fill="#FBBC05"/>
<path d="M15.9973 7.16634C18.1506 7.16634 20.084 7.90634 21.604 9.35967L25.8106 5.15301C23.2706 2.78634 19.9506 1.33301 15.9973 1.33301C10.264 1.33301 5.30396 4.61967 2.89062 9.41301L7.79062 13.213C8.94396 9.74634 12.1773 7.16634 15.9973 7.16634Z" fill="#EA4335"/>
</svg>
